# xmcd
#
# Track frame offsets: 
#        150
#        9993
#        25377
#        39059
#        53197
#        75685
#        87056
#        101028
#        116139
#        128843
#        141802
#        159944
#        173391
#        192673
#        206166
#        219578
#        232976
#        245727
#        261270
#        279527
#
# Disc length: 3907 seconds
#
# Revision: 0
# Processed by: cddbd v1.5.2PL0 Copyright (c) Steve Scherf et al.
# Submitted via: ExactAudioCopy v1.0b1
#
DISCID=120f4114
DTITLE=Best of Blues  - Best of Blues Men in Blues CD 5
DYEAR=2010
DGENRE=Blues
TTITLE0=Buddy Guy - First time I met the blues
TTITLE1=Flyd Dixon - Hey Bortender
TTITLE2=Big Joe Turner- Back breaking blues
TTITLE3=Ray Charles - Blues in my middle name
TTITLE4=B.B. King - The thrill is gone
TTITLE5=Jimmy Witherspoon - Trouble in mind
TTITLE6=Jean Chartron - Baby please don(t go
TTITLE7=Jonny Otis - Bad luck shadow
TTITLE8=Elvin Bishop - Don't let the bossme get you down
TTITLE9=Elton Britt - Blues Texas moonlight
TTITLE10=Drink Small - Widow woman
TTITLE11=Frank edwards - My baby's gone
TTITLE12=Guitar Gabriel - Come so far
TTITLE13=Robert Johnson - Sweet home Chicago
TTITLE14=Sonny Boy Willamson - Better cut that out
TTITLE15=Big Bill Broonzy - Wee wee hours blues
TTITLE16=Ivory Joe Hunter - Land lord blues
TTITLE17=Elder Anderson Johnson - My lord and I
TTITLE18=Big Boy Henry - Cedar street woman
TTITLE19=Ike Turner and The King of Rythm - I'm lonesome baby
EXTD=
EXTT0=
EXTT1=
EXTT2=
EXTT3=
EXTT4=
EXTT5=
EXTT6=
EXTT7=
EXTT8=
EXTT9=
EXTT10=
EXTT11=
EXTT12=
EXTT13=
EXTT14=
EXTT15=
EXTT16=
EXTT17=
EXTT18=
EXTT19=
PLAYORDER=
